<svg xmlns="http://www.w3.org/2000/svg" xmlns:xlink="http://www.w3.org/1999/xlink" viewBox="0 0 800 729" width="800" height="729">
  <rect width="100%" height="100%" fill="#ffffff"/>
  <defs>
    <g id="x168a0"><radialGradient id="x168g0" cx=".5" cy=".5" fx=".33" fy=".33" r=".66"><stop offset="0%" stop-color="#c3c3c3"/><stop offset="100%" stop-color="#898989"/></radialGradient><circle cx="0" cy="0" r="33.4" fill="url(#x168g0)" stroke="#030303" stroke-width="5.9"/></g>
    <g id="x168a1"><radialGradient id="x168g1" cx=".5" cy=".5" fx=".33" fy=".33" r=".66"><stop offset="0%" stop-color="#c3c3c3"/><stop offset="100%" stop-color="#888888"/></radialGradient><circle cx="0" cy="0" r="33.4" fill="url(#x168g1)" stroke="#000000" stroke-width="5.9"/></g>
    <g id="x168a2"><radialGradient id="x168g2" cx=".5" cy=".5" fx=".33" fy=".33" r=".66"><stop offset="0%" stop-color="#c4c4c4"/><stop offset="100%" stop-color="#8a8a8a"/></radialGradient><circle cx="0" cy="0" r="33.4" fill="url(#x168g2)" stroke="#060606" stroke-width="5.9"/></g>
    <g id="x168a3"><radialGradient id="x168g3" cx=".5" cy=".5" fx=".33" fy=".33" r=".66"><stop offset="0%" stop-color="#c3c3c3"/><stop offset="100%" stop-color="#888888"/></radialGradient><circle cx="0" cy="0" r="33.4" fill="url(#x168g3)" stroke="#000000" stroke-width="5.9"/></g>
    <g id="x168a4"><radialGradient id="x168g4" cx=".5" cy=".5" fx=".33" fy=".33" r=".66"><stop offset="0%" stop-color="#c3c3c3"/><stop offset="100%" stop-color="#898989"/></radialGradient><circle cx="0" cy="0" r="33.4" fill="url(#x168g4)" stroke="#030303" stroke-width="5.9"/></g>
    <g id="x168a5"><radialGradient id="x168g5" cx=".5" cy=".5" fx=".33" fy=".33" r=".66"><stop offset="0%" stop-color="#c3c3c3"/><stop offset="100%" stop-color="#888888"/></radialGradient><circle cx="0" cy="0" r="33.4" fill="url(#x168g5)" stroke="#020202" stroke-width="5.9"/></g>
    <g id="x168a6"><radialGradient id="x168g6" cx=".5" cy=".5" fx=".33" fy=".33" r=".66"><stop offset="0%" stop-color="#c3c3c3"/><stop offset="100%" stop-color="#898989"/></radialGradient><circle cx="0" cy="0" r="33.4" fill="url(#x168g6)" stroke="#030303" stroke-width="5.9"/></g>
    <g id="x168a7"><radialGradient id="x168g7" cx=".5" cy=".5" fx=".33" fy=".33" r=".66"><stop offset="0%" stop-color="#c3c3c3"/><stop offset="100%" stop-color="#888888"/></radialGradient><circle cx="0" cy="0" r="33.4" fill="url(#x168g7)" stroke="#020202" stroke-width="5.9"/></g>
    <g id="x168a8"><radialGradient id="x168g8" cx=".5" cy=".5" fx=".33" fy=".33" r=".66"><stop offset="0%" stop-color="#7388fa"/><stop offset="100%" stop-color="#2e47c8"/></radialGradient><circle cx="0" cy="0" r="31.5" fill="url(#x168g8)" stroke="#0e0e0e" stroke-width="5.9"/></g>
    <g id="x168a9"><radialGradient id="x168g9" cx=".5" cy=".5" fx=".33" fy=".33" r=".66"><stop offset="0%" stop-color="#6e84fa"/><stop offset="100%" stop-color="#2741c6"/></radialGradient><circle cx="0" cy="0" r="31.5" fill="url(#x168g9)" stroke="#020202" stroke-width="5.9"/></g>
    <g id="x168a10"><radialGradient id="x168g10" cx=".5" cy=".5" fx=".33" fy=".33" r=".66"><stop offset="0%" stop-color="#7086fa"/><stop offset="100%" stop-color="#2943c6"/></radialGradient><circle cx="0" cy="0" r="31.5" fill="url(#x168g10)" stroke="#060606" stroke-width="5.9"/></g>
    <g id="x168a11"><radialGradient id="x168g11" cx=".5" cy=".5" fx=".33" fy=".33" r=".66"><stop offset="0%" stop-color="#7086fa"/><stop offset="100%" stop-color="#2a43c7"/></radialGradient><circle cx="0" cy="0" r="31.5" fill="url(#x168g11)" stroke="#070707" stroke-width="5.9"/></g>
    <g id="x168a12"><radialGradient id="x168g12" cx=".5" cy=".5" fx=".33" fy=".33" r=".66"><stop offset="0%" stop-color="#ff5555"/><stop offset="100%" stop-color="#cc0a0a"/></radialGradient><circle cx="0" cy="0" r="30.0" fill="url(#x168g12)" stroke="#000000" stroke-width="5.9"/></g>
    <g id="x168a13"><radialGradient id="x168g13" cx=".5" cy=".5" fx=".33" fy=".33" r=".66"><stop offset="0%" stop-color="#ff5555"/><stop offset="100%" stop-color="#cc0a0a"/></radialGradient><circle cx="0" cy="0" r="30.0" fill="url(#x168g13)" stroke="#010101" stroke-width="5.9"/></g>
  </defs>
  <use x="560.2" y="478.6" xlink:href="#x168a8"/>
  <line x1="532.1" y1="475.3" x2="459.3" y2="466.8" stroke="#050505" stroke-width="14.7" stroke-linecap="round"/>
  <line x1="575.6" y1="455.2" x2="617.0" y2="392.2" stroke="#040404" stroke-width="14.7" stroke-linecap="round"/>
  <line x1="571.7" y1="503.9" x2="604.1" y2="575.0" stroke="#030303" stroke-width="14.7" stroke-linecap="round"/>
  <use x="575.7" y="245.6" xlink:href="#x168a11"/>
  <line x1="547.7" y1="242.2" x2="472.2" y2="233.0" stroke="#020202" stroke-width="14.7" stroke-linecap="round"/>
  <line x1="587.8" y1="271.2" x2="620.5" y2="340.2" stroke="#020202" stroke-width="14.7" stroke-linecap="round"/>
  <line x1="592.6" y1="222.9" x2="640.0" y2="158.8" stroke="#020202" stroke-width="14.7" stroke-linecap="round"/>
  <use x="429.5" y="463.3" xlink:href="#x168a2"/>
  <line x1="414.7" y1="491.0" x2="364.5" y2="541.9" stroke="#030303" stroke-width="10.3" stroke-linecap="round"/>
  <line x1="402.1" y1="478.5" x2="351.9" y2="529.4" stroke="#030303" stroke-width="10.3" stroke-linecap="round" stroke-dasharray="10.3,20.6"/>
  <line x1="408.4" y1="440.1" x2="377.8" y2="376.6" stroke="#020202" stroke-width="10.3" stroke-linecap="round" stroke-dasharray="10.3,20.6"/>
  <line x1="424.4" y1="432.4" x2="393.7" y2="368.9" stroke="#020202" stroke-width="10.3" stroke-linecap="round"/>
  <use x="338.3" y="555.8" xlink:href="#x168a10"/>
  <line x1="309.1" y1="550.8" x2="248.2" y2="519.5" stroke="#020202" stroke-width="10.3" stroke-linecap="round"/>
  <line x1="317.2" y1="535.0" x2="256.3" y2="503.8" stroke="#020202" stroke-width="10.3" stroke-linecap="round" stroke-dasharray="10.3,20.6"/>
  <use x="372.6" y="345.7" xlink:href="#x168a0"/>
  <line x1="388.1" y1="319.9" x2="426.9" y2="255.1" stroke="#010101" stroke-width="14.7" stroke-linecap="round"/>
  <line x1="344.6" y1="359.8" x2="272.5" y2="373.1" stroke="#010101" stroke-width="10.3" stroke-linecap="round" stroke-dasharray="10.3,20.6"/>
  <line x1="341.4" y1="342.4" x2="269.3" y2="355.7" stroke="#010101" stroke-width="10.3" stroke-linecap="round"/>
  <use x="225.5" y="497.9" xlink:href="#x168a4"/>
  <line x1="220.8" y1="466.9" x2="230.5" y2="396.4" stroke="#010101" stroke-width="10.3" stroke-linecap="round"/>
  <line x1="238.4" y1="469.3" x2="248.0" y2="398.8" stroke="#010101" stroke-width="10.3" stroke-linecap="round" stroke-dasharray="10.3,20.6"/>
  <use x="442.3" y="229.3" xlink:href="#x168a6"/>
  <line x1="422.5" y1="205.1" x2="400.3" y2="152.6" stroke="#010101" stroke-width="10.3" stroke-linecap="round"/>
  <line x1="438.8" y1="198.2" x2="416.6" y2="145.7" stroke="#010101" stroke-width="10.3" stroke-linecap="round"/>
  <use x="243.0" y="369.5" xlink:href="#x168a9"/>
  <line x1="222.5" y1="350.0" x2="166.0" y2="296.4" stroke="#000000" stroke-width="14.7" stroke-linecap="round"/>
  <use x="633.4" y="367.3" xlink:href="#x168a5"/>
  <line x1="663.7" y1="360.8" x2="720.0" y2="365.1" stroke="#000000" stroke-width="10.3" stroke-linecap="round"/>
  <line x1="662.4" y1="378.4" x2="718.6" y2="382.8" stroke="#000000" stroke-width="10.3" stroke-linecap="round"/>
  <use x="657.9" y="134.7" xlink:href="#x168a7"/>
  <use x="398.0" y="124.3" xlink:href="#x168a13"/>
  <use x="616.4" y="601.9" xlink:href="#x168a3"/>
  <use x="144.2" y="275.7" xlink:href="#x168a1"/>
  <use x="745.9" y="376.0" xlink:href="#x168a12"/>
</svg>